<?xml version="1.0" encoding="UTF-8" standalone="no"?>
<!-- Created with Inkscape (http://www.inkscape.org/) -->

<svg
   xmlns:dc="http://purl.org/dc/elements/1.1/"
   xmlns:cc="http://creativecommons.org/ns#"
   xmlns:rdf="http://www.w3.org/1999/02/22-rdf-syntax-ns#"
   xmlns:svg="http://www.w3.org/2000/svg"
   xmlns="http://www.w3.org/2000/svg"
   xmlns:sodipodi="http://sodipodi.sourceforge.net/DTD/sodipodi-0.dtd"
   xmlns:inkscape="http://www.inkscape.org/namespaces/inkscape"
   id="svg2985"
   version="1.1"
   inkscape:version="0.48.2 r9819"
   width="19.8"
   height="32.595"
   xml:space="preserve"
   sodipodi:docname="ProverbTeleprompter.pdf"><metadata
     id="metadata2991"><rdf:RDF><cc:Work
         rdf:about=""><dc:format>image/svg+xml</dc:format><dc:type
           rdf:resource="http://purl.org/dc/dcmitype/StillImage" /><dc:title></dc:title></cc:Work></rdf:RDF></metadata><defs
     id="defs2989" /><sodipodi:namedview
     pagecolor="#ffffff"
     bordercolor="#666666"
     borderopacity="1"
     objecttolerance="10"
     gridtolerance="10"
     guidetolerance="10"
     inkscape:pageopacity="0"
     inkscape:pageshadow="2"
     inkscape:window-width="640"
     inkscape:window-height="480"
     id="namedview2987"
     showgrid="false"
     inkscape:zoom="23.653934"
     inkscape:cx="9.8999996"
     inkscape:cy="16.297501"
     inkscape:window-x="0"
     inkscape:window-y="0"
     inkscape:window-maximized="0"
     inkscape:current-layer="g2993" /><g
     id="g2993"
     inkscape:groupmode="layer"
     inkscape:label="ProverbTeleprompter"
     transform="matrix(1.25,0,0,-1.25,-373.97125,244.9)"><path
       d="m 315.017,188.928 c 0,-3.581 -1.685,-5.788 -5.056,-6.621 -1.148,-0.285 -3.299,-0.427 -6.452,-0.427 l -1.812,0 0,-11.88 -2.52,0 0,25.92 5.052,0 c 2.883,0 4.837,-0.131 5.861,-0.394 1.537,-0.39 2.743,-1.174 3.617,-2.351 0.874,-1.178 1.31,-2.593 1.31,-4.247 z m -2.52,-0.011 c 0,0.877 -0.229,1.685 -0.689,2.421 -0.459,0.737 -1.071,1.265 -1.836,1.584 -0.765,0.319 -2.014,0.478 -3.746,0.478 l -4.529,0 0,-9 4.337,-0.056 c 2.94,-0.034 4.862,0.669 5.766,2.109 0.465,0.731 0.697,1.553 0.697,2.464"
       style="fill:#000000;fill-opacity:1;fill-rule:nonzero;stroke:none"
       id="path2995" /><path
       d="m 312.166,181.904 -3.96,0 0,-12.06 -2.52,0 0,12.06 -3.99,0 0,2.52 3.99,0 0,4.95 2.52,0 0,-4.95 3.96,0 0,-2.52"
       style="fill:#69ca69;fill-opacity:1;fill-rule:nonzero;stroke:none"
       id="path2997" /></g></svg>